<svg baseProfile="full" height="700" version="1.1" width="1200" xmlns="http://www.w3.org/2000/svg" xmlns:ev="http://www.w3.org/2001/xml-events" xmlns:xlink="http://www.w3.org/1999/xlink"><defs><style type="text/css"><![CDATA[.background path {fill: #808080; fill-opacity: 0}.background path:nth-child(odd) {fill-opacity: .1}.x-regions rect {fill: yellow; stroke: black; opacity: 0.5}.axes {font-size: 14px}.x-axis .tick .lab {font-weight: bold; dominant-baseline: hanging}.axes, .tree {font-size: 14px; text-anchor: middle}.axes line, .edge {stroke: black; fill: none}.axes .ax-skip {stroke-dasharray: 4}.y-axis .grid {stroke: #FAFAFA}.node > .sym {fill: black; stroke: none}.site > .sym {stroke: black}.mut text {fill: red; font-style: italic}.mut.extra text {fill: hotpink}.mut line {fill: none; stroke: none}.mut .sym {fill: none; stroke: red}.mut.extra .sym {stroke: hotpink}.node .mut .sym {stroke-width: 1.5px}.tree text, .tree-sequence text {dominant-baseline: central}.plotbox .lab.lft {text-anchor: end}.plotbox .lab.rgt {text-anchor: start}.polytomy line {stroke: black; stroke-dasharray: 1px, 1px}.polytomy text {paint-order:stroke;stroke-width:0.3em;stroke:white}]]></style></defs><g class="tree t1109"><g class="plotbox"><g class="c4 node n7841 root" transform="translate(600 26.8)"><g class="a7841 i0 leaf node n0 p0 sample" transform="translate(-551 641.4)"><path class="edge" d="M 0 0 V -641.4 H 551"/><rect class="sym" height="6" style="fill:red;" width="6" x="-3" y="-3"/><text class="lab" transform="translate(0 11)">8934547</text></g><g class="a7841 i3 leaf node n6 p0 sample" transform="translate(551 641.4)"><path class="edge" d="M 0 0 V -641.4 H -551"/><rect class="sym" height="6" style="fill:red;" width="6" x="-3" y="-3"/><text class="lab" transform="translate(0 11)">8N05890</text></g><g class="a7841 c1 node n950" transform="translate(493 577.438)"><g class="a950 i1 leaf node n2 p0 sample" transform="translate(0.0 63.9623)"><path class="edge" d="M 0 0 V -63.9623 H 0.0"/><rect class="sym" height="6" style="fill:red;" width="6" x="-3" y="-3"/><text class="lab" transform="translate(0 11)">8L19766</text></g><path class="edge" d="M 0 0 V -577.438 H -493"/><circle class="sym" cx="0" cy="0" r="3"/><text class="lab rgt" transform="translate(3 -7)"/></g><g class="a7841 c1 node n7267" transform="translate(322.625 33.7579)"><g class="a7267 c1 node n7262" transform="translate(0.0 1.48924e-07)"><g class="a7262 c2 node n7172" transform="translate(0.0 31.9812)"><g class="a7172 i7 leaf node n15 p1 sample" transform="translate(112.375 575.661)"><path class="edge" d="M 0 0 V -575.661 H -112.375"/><rect class="sym" height="6" style="fill:blue;" width="6" x="-3" y="-3"/><text class="lab" transform="translate(0 11)">FR046</text></g><g class="a7172 c1 node n7082" transform="translate(-112.375 1.48924e-07)"><g class="a7082 c1 node n6907" transform="translate(0.0 31.9812)"><g class="a6907 c1 node n6854" transform="translate(0.0 1.48924e-07)"><g class="a6854 c2 node n6792" transform="translate(0.0 31.9812)"><g class="a6792 i4 leaf node n9 p0 sample" transform="translate(166.75 511.699)"><path class="edge" d="M 0 0 V -511.699 H -166.75"/><rect class="sym" height="6" style="fill:red;" width="6" x="-3" y="-3"/><text class="lab" transform="translate(0 11)">8N73604</text></g><g class="a6792 c1 node n6553" transform="translate(-166.75 1.48924e-07)"><g class="a6553 c1 node n6461" transform="translate(0.0 31.9812)"><g class="a6461 c2 node n6297" transform="translate(0.0 1.48924e-07)"><g class="a6297 c1 node n6185" transform="translate(-246.5 31.9812)"><g class="a6185 c1 node n5887" transform="translate(0.0 31.9812)"><g class="a5887 c1 node n5666" transform="translate(0.0 31.9812)"><g class="a5666 c1 node n5347" transform="translate(0.0 31.9812)"><g class="a5347 c2 node n5238" transform="translate(0.0 31.9812)"><g class="a5238 c2 node n4993" transform="translate(-224.75 31.9812)"><g class="a4993 c1 node n4603" transform="translate(-65.25 31.9812)"><g class="a4603 c1 node n4296" transform="translate(0.0 31.9812)"><g class="a4296 c1 node n2322" transform="translate(0.0 95.9435)"><g class="a2322 i0 leaf node n1 p0 sample" transform="translate(0.0 127.925)"><path class="edge" d="M 0 0 V -127.925 H 0.0"/><rect class="sym" height="6" style="fill:red;" width="6" x="-3" y="-3"/><text class="lab" transform="translate(0 11)">8934547</text></g><path class="edge" d="M 0 0 V -95.9435 H 0.0"/><circle class="sym" cx="0" cy="0" r="3"/><text class="lab lft" transform="translate(-3 -7)"/></g><path class="edge" d="M 0 0 V -31.9812 H 0.0"/><circle class="sym" cx="0" cy="0" r="3"/><text class="lab lft" transform="translate(-3 -7)"/></g><path class="edge" d="M 0 0 V -31.9812 H 65.25"/><circle class="sym" cx="0" cy="0" r="3"/><text class="lab lft" transform="translate(-3 -7)"/></g><g class="a4993 c2 node n3973" transform="translate(65.25 95.9435)"><g class="a3973 c2 node n291" transform="translate(-43.5 127.925)"><g class="a291 i5 leaf node n11 p1 sample" transform="translate(-29 63.9623)"><path class="edge" d="M 0 0 V -63.9623 H 29"/><rect class="sym" height="6" style="fill:blue;" width="6" x="-3" y="-3"/><text class="lab" transform="translate(0 11)">FR041</text></g><g class="a291 i6 leaf node n13 p1 sample" transform="translate(29 63.9623)"><path class="edge" d="M 0 0 V -63.9623 H -29"/><rect class="sym" height="6" style="fill:blue;" width="6" x="-3" y="-3"/><text class="lab" transform="translate(0 11)">FR044</text></g><path class="edge" d="M 0 0 V -127.925 H 43.5"/><circle class="sym" cx="0" cy="0" r="3"/><text class="lab lft" transform="translate(-3 -7)"/></g><g class="a3973 c1 node n3187" transform="translate(43.5 31.9812)"><g class="a3187 i9 leaf node n18 p1 sample" transform="translate(0.0 159.906)"><path class="edge" d="M 0 0 V -159.906 H 0.0"/><rect class="sym" height="6" style="fill:blue;" width="6" x="-3" y="-3"/><text class="lab" transform="translate(0 11)">FR050</text></g><path class="edge" d="M 0 0 V -31.9812 H -43.5"/><circle class="sym" cx="0" cy="0" r="3"/><text class="lab rgt" transform="translate(3 -7)"/></g><path class="edge" d="M 0 0 V -95.9435 H -65.25"/><circle class="sym" cx="0" cy="0" r="3"/><text class="lab rgt" transform="translate(3 -7)"/></g><path class="edge" d="M 0 0 V -31.9812 H 224.75"/><circle class="sym" cx="0" cy="0" r="3"/><text class="lab lft" transform="translate(-3 -7)"/></g><g class="a5238 c4 node n4890" transform="translate(224.75 31.9812)"><g class="a4890 c3 node n4151" transform="translate(-181.25 63.9623)"><g class="a4151 i8 leaf node n17 p1 sample" transform="translate(72.5 223.868)"><path class="edge" d="M 0 0 V -223.868 H -72.5"/><rect class="sym" height="6" style="fill:blue;" width="6" x="-3" y="-3"/><text class="lab" transform="translate(0 11)">FR048</text></g><g class="a4151 c1 node n3193" transform="translate(14.5 63.9623)"><g class="a3193 i8 leaf node n16 p1 sample" transform="translate(0.0 159.906)"><path class="edge" d="M 0 0 V -159.906 H 0.0"/><rect class="sym" height="6" style="fill:blue;" width="6" x="-3" y="-3"/><text class="lab" transform="translate(0 11)">FR048</text></g><path class="edge" d="M 0 0 V -63.9623 H -14.5"/><circle class="sym" cx="0" cy="0" r="3"/><text class="lab rgt" transform="translate(3 -7)"/></g><g class="a4151 c1 node n3751" transform="translate(-72.5 31.9812)"><g class="a3751 c2 node n3241" transform="translate(0.0 31.9812)"><g class="a3241 c1 node n1844" transform="translate(29 63.9623)"><g class="a1844 c1 node n133" transform="translate(0.0 31.9812)"><g class="a133 i7 leaf node n14 p1 sample" transform="translate(0.0 63.9623)"><path class="edge" d="M 0 0 V -63.9623 H 0.0"/><rect class="sym" height="6" style="fill:blue;" width="6" x="-3" y="-3"/><text class="lab" transform="translate(0 11)">FR046</text></g><path class="edge" d="M 0 0 V -31.9812 H 0.0"/><circle class="sym" cx="0" cy="0" r="3"/><text class="lab lft" transform="translate(-3 -7)"/></g><path class="edge" d="M 0 0 V -63.9623 H -29"/><circle class="sym" cx="0" cy="0" r="3"/><text class="lab rgt" transform="translate(3 -7)"/></g><g class="a3241 c1 node n896" transform="translate(-29 95.9435)"><g class="a896 i1 leaf node n3 p0 sample" transform="translate(0.0 63.9623)"><path class="edge" d="M 0 0 V -63.9623 H 0.0"/><rect class="sym" height="6" style="fill:red;" width="6" x="-3" y="-3"/><text class="lab" transform="translate(0 11)">8L19766</text></g><path class="edge" d="M 0 0 V -95.9435 H 29"/><circle class="sym" cx="0" cy="0" r="3"/><text class="lab lft" transform="translate(-3 -7)"/></g><path class="edge" d="M 0 0 V -31.9812 H 0.0"/><circle class="sym" cx="0" cy="0" r="3"/><text class="lab lft" transform="translate(-3 -7)"/></g><path class="edge" d="M 0 0 V -31.9812 H 72.5"/><circle class="sym" cx="0" cy="0" r="3"/><text class="lab lft" transform="translate(-3 -7)"/></g><path class="edge" d="M 0 0 V -63.9623 H 181.25"/><circle class="sym" cx="0" cy="0" r="3"/><text class="lab lft" transform="translate(-3 -7)"/></g><g class="a4890 i2 leaf node n4 p0 sample" transform="translate(-50.75 287.83)"><path class="edge" d="M 0 0 V -287.83 H 50.75"/><rect class="sym" height="6" style="fill:red;" width="6" x="-3" y="-3"/><text class="lab" transform="translate(0 11)">8M31651</text></g><g class="a4890 c1 node n4583" transform="translate(50.75 31.9812)"><g class="a4583 c1 node n4173" transform="translate(0.0 31.9812)"><g class="a4173 c2 node n2132" transform="translate(0.0 127.925)"><g class="a2132 c2 m2023 node n474 s2030" transform="translate(43.5 31.9812)"><g class="a474 i4 leaf node n8 p0 sample" transform="translate(-29 63.9623)"><path class="edge" d="M 0 0 V -63.9623 H 29"/><rect class="sym" height="6" style="fill:red;" width="6" x="-3" y="-3"/><text class="lab" transform="translate(0 11)">8N73604</text></g><g class="a474 i6 leaf node n12 p1 sample" transform="translate(29 63.9623)"><path class="edge" d="M 0 0 V -63.9623 H -29"/><rect class="sym" height="6" style="fill:blue;" width="6" x="-3" y="-3"/><text class="lab" transform="translate(0 11)">FR044</text></g><path class="edge" d="M 0 0 V -31.9812 H -43.5"/><g class="mut m2023 s2030 unknown_time" transform="translate(0 -15.9906)"><line x1="0" x2="0" y1="0" y2="15.9906"/><path class="sym" d="M -3,-3 l 6,6 M -3,3 l 6,-6"/><text class="lab rgt" transform="translate(5 0)">2023</text></g><circle class="sym" cx="0" cy="0" r="3"/><text class="lab rgt" transform="translate(3 -7)"/></g><g class="a2132 i2 leaf node n5 p0 sample" transform="translate(-43.5 95.9435)"><path class="edge" d="M 0 0 V -95.9435 H 43.5"/><rect class="sym" height="6" style="fill:red;" width="6" x="-3" y="-3"/><text class="lab" transform="translate(0 11)">8M31651</text></g><path class="edge" d="M 0 0 V -127.925 H 0.0"/><circle class="sym" cx="0" cy="0" r="3"/><text class="lab lft" transform="translate(-3 -7)"/></g><path class="edge" d="M 0 0 V -31.9812 H 0.0"/><circle class="sym" cx="0" cy="0" r="3"/><text class="lab lft" transform="translate(-3 -7)"/></g><path class="edge" d="M 0 0 V -31.9812 H -50.75"/><circle class="sym" cx="0" cy="0" r="3"/><text class="lab rgt" transform="translate(3 -7)"/></g><g class="a4890 c1 node n1826" transform="translate(181.25 191.887)"><g class="a1826 c1 node n63" transform="translate(0.0 31.9812)"><g class="a63 i9 leaf node n19 p1 sample" transform="translate(0.0 63.9623)"><path class="edge" d="M 0 0 V -63.9623 H 0.0"/><rect class="sym" height="6" style="fill:blue;" width="6" x="-3" y="-3"/><text class="lab" transform="translate(0 11)">FR050</text></g><path class="edge" d="M 0 0 V -31.9812 H 0.0"/><circle class="sym" cx="0" cy="0" r="3"/><text class="lab lft" transform="translate(-3 -7)"/></g><path class="edge" d="M 0 0 V -191.887 H -181.25"/><circle class="sym" cx="0" cy="0" r="3"/><text class="lab rgt" transform="translate(3 -7)"/></g><path class="edge" d="M 0 0 V -31.9812 H -224.75"/><circle class="sym" cx="0" cy="0" r="3"/><text class="lab rgt" transform="translate(3 -7)"/></g><path class="edge" d="M 0 0 V -31.9812 H 0.0"/><circle class="sym" cx="0" cy="0" r="3"/><text class="lab lft" transform="translate(-3 -7)"/></g><path class="edge" d="M 0 0 V -31.9812 H 0.0"/><circle class="sym" cx="0" cy="0" r="3"/><text class="lab lft" transform="translate(-3 -7)"/></g><path class="edge" d="M 0 0 V -31.9812 H 0.0"/><circle class="sym" cx="0" cy="0" r="3"/><text class="lab lft" transform="translate(-3 -7)"/></g><path class="edge" d="M 0 0 V -31.9812 H 0.0"/><circle class="sym" cx="0" cy="0" r="3"/><text class="lab lft" transform="translate(-3 -7)"/></g><path class="edge" d="M 0 0 V -31.9812 H 246.5"/><circle class="sym" cx="0" cy="0" r="3"/><text class="lab lft" transform="translate(-3 -7)"/></g><g class="a6297 c2 node n1547" transform="translate(246.5 383.774)"><g class="a1547 i5 leaf node n10 p1 sample" transform="translate(29 95.9435)"><path class="edge" d="M 0 0 V -95.9435 H -29"/><rect class="sym" height="6" style="fill:blue;" width="6" x="-3" y="-3"/><text class="lab" transform="translate(0 11)">FR041</text></g><g class="a1547 i3 leaf node n7 p0 sample" transform="translate(-29 95.9435)"><path class="edge" d="M 0 0 V -95.9435 H 29"/><rect class="sym" height="6" style="fill:red;" width="6" x="-3" y="-3"/><text class="lab" transform="translate(0 11)">8N05890</text></g><path class="edge" d="M 0 0 V -383.774 H -246.5"/><circle class="sym" cx="0" cy="0" r="3"/><text class="lab rgt" transform="translate(3 -7)"/></g><path class="edge" d="M 0 0 V -1.48924e-07 H 0.0"/><circle class="sym" cx="0" cy="0" r="3"/><text class="lab lft" transform="translate(-3 -7)"/></g><path class="edge" d="M 0 0 V -31.9812 H 0.0"/><circle class="sym" cx="0" cy="0" r="3"/><text class="lab lft" transform="translate(-3 -7)"/></g><path class="edge" d="M 0 0 V -1.48924e-07 H 166.75"/><circle class="sym" cx="0" cy="0" r="3"/><text class="lab lft" transform="translate(-3 -7)"/></g><path class="edge" d="M 0 0 V -31.9812 H 0.0"/><circle class="sym" cx="0" cy="0" r="3"/><text class="lab lft" transform="translate(-3 -7)"/></g><path class="edge" d="M 0 0 V -1.48924e-07 H 0.0"/><circle class="sym" cx="0" cy="0" r="3"/><text class="lab lft" transform="translate(-3 -7)"/></g><path class="edge" d="M 0 0 V -31.9812 H 0.0"/><circle class="sym" cx="0" cy="0" r="3"/><text class="lab lft" transform="translate(-3 -7)"/></g><path class="edge" d="M 0 0 V -1.48924e-07 H 112.375"/><circle class="sym" cx="0" cy="0" r="3"/><text class="lab lft" transform="translate(-3 -7)"/></g><path class="edge" d="M 0 0 V -31.9812 H 0.0"/><circle class="sym" cx="0" cy="0" r="3"/><text class="lab lft" transform="translate(-3 -7)"/></g><path class="edge" d="M 0 0 V -1.48924e-07 H 0.0"/><circle class="sym" cx="0" cy="0" r="3"/><text class="lab lft" transform="translate(-3 -7)"/></g><path class="edge" d="M 0 0 V -33.7579 H -322.625"/><circle class="sym" cx="0" cy="0" r="3"/><text class="lab rgt" transform="translate(3 -7)"/></g><circle class="sym" cx="0" cy="0" r="3"/><text class="lab" transform="translate(0 -11)"/></g></g></g></svg>