<svg baseProfile="full" height="250" version="1.1" width="800" xmlns="http://www.w3.org/2000/svg" xmlns:ev="http://www.w3.org/2001/xml-events" xmlns:xlink="http://www.w3.org/1999/xlink"><defs><style type="text/css"><![CDATA[.background path {fill: #808080; fill-opacity: 0}.background path:nth-child(odd) {fill-opacity: .1}.axes {font-size: 14px}.x-axis .tick .lab {font-weight: bold; dominant-baseline: hanging}.axes, .tree {font-size: 14px; text-anchor: middle}.axes line, .edge {stroke: black; fill: none}.axes .ax-skip {stroke-dasharray: 4}.y-axis .grid {stroke: #FAFAFA}.node > .sym {fill: black; stroke: none}.site > .sym {stroke: black}.mut text {fill: red; font-style: italic}.mut.extra text {fill: hotpink}.mut line {fill: none; stroke: none}.mut .sym {fill: none; stroke: red}.mut.extra .sym {stroke: hotpink}.node .mut .sym {stroke-width: 1.5px}.tree text, .tree-sequence text {dominant-baseline: central}.plotbox .lab.lft {text-anchor: end}.plotbox .lab.rgt {text-anchor: start}.node:not(.sample) > .sym, .node:not(.sample) > .lab {visibility: hidden;}.mut {font-size: 12px} .y-axis .tick .lab {font-size: 85%}]]></style></defs><g class="tree-sequence"><g class="background"><path d="M56.8,0 l723.2,0 l0,188.2 l0,25 l0,5 l-723.2,0 l0,-5 l0,-25 l0,-188.2z" /></g><g class="axes"><g class="x-axis"><g class="title" transform="translate(418.4 250)"><text class="lab" text-anchor="middle" transform="translate(0 -11)">Genome position</text></g><line class="ax-line" x1="56.8" x2="780" y1="213.2" y2="213.2" /><g class="ticks"><g class="tick" transform="translate(56.8 213.2)"><line x1="0" x2="0" y1="0" y2="5" /><g transform="translate(0 6)"><text class="lab">0</text></g></g><g class="tick" transform="translate(780 213.2)"><line x1="0" x2="0" y1="0" y2="5" /><g transform="translate(0 6)"><text class="lab">6</text></g></g></g><g class="site s0" transform="translate(56.8 213.2)"><line class="sym" x1="0" x2="0" y1="0" y2="-10" /><g class="mut m0"><polyline class="sym" points="2.5,-6.5 0,-1.5 -2.5,-6.5" /></g></g><g class="site s1" transform="translate(177.333 213.2)"><line class="sym" x1="0" x2="0" y1="0" y2="-10" /><g class="mut m1"><polyline class="sym" points="2.5,-6.5 0,-1.5 -2.5,-6.5" /></g></g><g class="site s2" transform="translate(297.867 213.2)"><line class="sym" x1="0" x2="0" y1="0" y2="-10" /><g class="mut m2"><polyline class="sym" points="2.5,-6.5 0,-1.5 -2.5,-6.5" /></g></g><g class="site s3" transform="translate(418.4 213.2)"><line class="sym" x1="0" x2="0" y1="0" y2="-10" /><g class="mut m3"><polyline class="sym" points="2.5,-6.5 0,-1.5 -2.5,-6.5" /></g></g><g class="site s4" transform="translate(538.933 213.2)"><line class="sym" x1="0" x2="0" y1="0" y2="-10" /><g class="mut m4"><polyline class="sym" points="2.5,-6.5 0,-1.5 -2.5,-6.5" /></g></g><g class="site s5" transform="translate(659.467 213.2)"><line class="sym" x1="0" x2="0" y1="0" y2="-10" /><g class="mut m6"><polyline class="sym" points="2.5,-6.5 0,-1.5 -2.5,-6.5" /></g><g class="mut m5"><polyline class="sym" points="2.5,-10.5 0,-5.5 -2.5,-10.5" /></g></g></g><g class="y-axis"><g class="title" transform="translate(0 90.7)"><text class="lab" text-anchor="middle" transform="translate(11) rotate(-90)">Time ago (uncalibrated)</text></g><line class="ax-line" x1="56.8" x2="56.8" y1="171.4" y2="10" /><g class="ticks"><g class="tick" transform="translate(56.8 171.4)"><line x1="0" x2="-5" y1="0" y2="0" /><g transform="translate(-6 0)"><text class="lab" text-anchor="end">0.00</text></g></g><g class="tick" transform="translate(56.8 135.25)"><line x1="0" x2="-5" y1="0" y2="0" /><g transform="translate(-6 0)"><text class="lab" text-anchor="end">0.20</text></g></g><g class="tick" transform="translate(56.8 99.1)"><line x1="0" x2="-5" y1="0" y2="0" /><g transform="translate(-6 0)"><text class="lab" text-anchor="end">0.40</text></g></g><g class="tick" transform="translate(56.8 62.95)"><line x1="0" x2="-5" y1="0" y2="0" /><g transform="translate(-6 0)"><text class="lab" text-anchor="end">0.60</text></g></g><g class="tick" transform="translate(56.8 26.8)"><line x1="0" x2="-5" y1="0" y2="0" /><g transform="translate(-6 0)"><text class="lab" text-anchor="end">0.80</text></g></g></g></g></g><g class="plotbox trees"><g class="tree t0" transform="translate(56.8 0)"><g class="plotbox"><g class="c3 node n7 root" transform="translate(327.44 26.8)"><g class="a7 i0 leaf node n0 sample" transform="translate(-239.12 144.6)"><path class="edge" d="M 0 0 V -144.6 H 239.12" /><rect class="sym" height="6" width="6" x="-3" y="-3" /><text class="lab" transform="translate(0 11)">a</text></g><g class="a7 c2 m1 m4 node n5 s1 s4" transform="translate(239.12 72.3)"><g class="a5 i3 leaf node n3 sample" transform="translate(-68.32 72.3)"><path class="edge" d="M 0 0 V -72.3 H 68.32" /><rect class="sym" height="6" width="6" x="-3" y="-3" /><text class="lab" transform="translate(0 11)">d</text></g><g class="a5 i4 leaf node n4 sample" transform="translate(68.32 72.3)"><path class="edge" d="M 0 0 V -72.3 H -68.32" /><rect class="sym" height="6" width="6" x="-3" y="-3" /><text class="lab" transform="translate(0 11)">e</text></g><path class="edge" d="M 0 0 V -72.3 H -239.12" /><g class="mut m1 s1 unknown_time" transform="translate(0 -48.2)"><line x1="0" x2="0" y1="0" y2="48.2" /><path class="sym" d="M -3,-3 l 6,6 M -3,3 l 6,-6" /><text class="lab rgt" transform="translate(5 0)">1</text></g><g class="mut m4 s4 unknown_time" transform="translate(0 -24.1)"><line x1="0" x2="0" y1="0" y2="24.1" /><path class="sym" d="M -3,-3 l 6,6 M -3,3 l 6,-6" /><text class="lab rgt" transform="translate(5 0)">4</text></g><circle class="sym" cx="0" cy="0" r="3" /><text class="lab rgt" transform="translate(3 -7.0)">f</text></g><g class="a7 c2 m2 m3 m5 node n6 s2 s3 s5" transform="translate(-34.16 72.3)"><g class="a6 i1 leaf m0 node n1 s0 sample" transform="translate(-68.32 72.3)"><path class="edge" d="M 0 0 V -72.3 H 68.32" /><g class="mut m0 s0 unknown_time" transform="translate(0 -36.15)"><line x1="0" x2="0" y1="0" y2="36.15" /><path class="sym" d="M -3,-3 l 6,6 M -3,3 l 6,-6" /><text class="lab lft" transform="translate(-5 0)">0</text></g><rect class="sym" height="6" width="6" x="-3" y="-3" /><text class="lab" transform="translate(0 11)">b</text></g><g class="a6 i2 leaf m6 node n2 s5 sample" transform="translate(68.32 72.3)"><path class="edge" d="M 0 0 V -72.3 H -68.32" /><g class="mut m6 s5 unknown_time" transform="translate(0 -36.15)"><line x1="0" x2="0" y1="0" y2="36.15" /><path class="sym" d="M -3,-3 l 6,6 M -3,3 l 6,-6" /><text class="lab rgt" transform="translate(5 0)">6</text></g><rect class="sym" height="6" width="6" x="-3" y="-3" /><text class="lab" transform="translate(0 11)">c</text></g><path class="edge" d="M 0 0 V -72.3 H 34.16" /><g class="mut m2 s2 unknown_time" transform="translate(0 -54.225)"><line x1="0" x2="0" y1="0" y2="54.225" /><path class="sym" d="M -3,-3 l 6,6 M -3,3 l 6,-6" /><text class="lab rgt" transform="translate(5 0)">2</text></g><g class="mut m3 s3 unknown_time" transform="translate(0 -36.15)"><line x1="0" x2="0" y1="0" y2="36.15" /><path class="sym" d="M -3,-3 l 6,6 M -3,3 l 6,-6" /><text class="lab rgt" transform="translate(5 0)">3</text></g><g class="mut m5 s5 unknown_time" transform="translate(0 -18.075)"><line x1="0" x2="0" y1="0" y2="18.075" /><path class="sym" d="M -3,-3 l 6,6 M -3,3 l 6,-6" /><text class="lab rgt" transform="translate(5 0)">5</text></g><circle class="sym" cx="0" cy="0" r="3" /><text class="lab rgt" transform="translate(3 -7.0)">g</text></g><circle class="sym" cx="0" cy="0" r="3" /><text class="lab" transform="translate(0 -11)">h</text></g></g></g></g></g></svg>