<svg baseProfile="full" height="700" version="1.1" width="1200" xmlns="http://www.w3.org/2000/svg" xmlns:ev="http://www.w3.org/2001/xml-events" xmlns:xlink="http://www.w3.org/1999/xlink"><defs><style type="text/css"><![CDATA[.background path {fill: #808080; fill-opacity: 0}.background path:nth-child(odd) {fill-opacity: .1}.x-regions rect {fill: yellow; stroke: black; opacity: 0.5}.axes {font-size: 14px}.x-axis .tick .lab {font-weight: bold; dominant-baseline: hanging}.axes, .tree {font-size: 14px; text-anchor: middle}.axes line, .edge {stroke: black; fill: none}.axes .ax-skip {stroke-dasharray: 4}.y-axis .grid {stroke: #FAFAFA}.node > .sym {fill: black; stroke: none}.site > .sym {stroke: black}.mut text {fill: red; font-style: italic}.mut.extra text {fill: hotpink}.mut line {fill: none; stroke: none}.mut .sym {fill: none; stroke: red}.mut.extra .sym {stroke: hotpink}.node .mut .sym {stroke-width: 1.5px}.tree text, .tree-sequence text {dominant-baseline: central}.plotbox .lab.lft {text-anchor: end}.plotbox .lab.rgt {text-anchor: start}.polytomy line {stroke: black; stroke-dasharray: 1px, 1px}.polytomy text {paint-order:stroke;stroke-width:0.3em;stroke:white}]]></style></defs><g class="tree t1092"><g class="plotbox"><g class="c3 node n7571 root" transform="translate(1026.84 26.8)"><g class="a7571 i3 leaf node n6 p0 sample" transform="translate(66.1562 641.4)"><path class="edge e29398" d="M 0 0 V -641.4 H -66.1562"/><rect class="sym" height="6" style="fill:red;" width="6" x="-3" y="-3"/><text class="lab" transform="translate(0 11)">8N05890</text></g><g class="a7571 i3 leaf node n7 p0 sample" transform="translate(124.156 641.4)"><path class="edge e29399" d="M 0 0 V -641.4 H -124.156"/><rect class="sym" height="6" style="fill:red;" width="6" x="-3" y="-3"/><text class="lab" transform="translate(0 11)">8N05890</text></g><g class="a7571 c3 node n6969" transform="translate(-124.156 65.7391)"><g class="a6969 i5 leaf node n10 p1 sample" transform="translate(74.3125 575.661)"><path class="edge e27059" d="M 0 0 V -575.661 H -74.3125"/><rect class="sym" height="6" style="fill:blue;" width="6" x="-3" y="-3"/><text class="lab" transform="translate(0 11)">FR041</text></g><g class="a6969 i6 leaf node n13 p1 sample" transform="translate(132.312 575.661)"><path class="edge e27060" d="M 0 0 V -575.661 H -132.312"/><rect class="sym" height="6" style="fill:blue;" width="6" x="-3" y="-3"/><text class="lab" transform="translate(0 11)">FR044</text></g><g class="a6969 c2 node n6830" transform="translate(-132.312 1.48924e-07)"><g class="a6830 c5 node n6573" transform="translate(-148.625 63.9623)"><g class="a6573 i1 leaf node n2 p0 sample" transform="translate(65.25 511.699)"><path class="edge e25651" d="M 0 0 V -511.699 H -65.25"/><rect class="sym" height="6" style="fill:red;" width="6" x="-3" y="-3"/><text class="lab" transform="translate(0 11)">8L19766</text></g><g class="a6573 c1 node n6286" transform="translate(-239.25 31.9812)"><g class="a6286 c3 node n6021" transform="translate(0.0 31.9812)"><g class="a6021 c4 node n4338" transform="translate(43.5 223.868)"><g class="a4338 i5 leaf node n11 p1 sample" transform="translate(-29 223.868)"><path class="edge e16107" d="M 0 0 V -223.868 H 29"/><rect class="sym" height="6" style="fill:blue;" width="6" x="-3" y="-3"/><text class="lab" transform="translate(0 11)">FR041</text></g><g class="a4338 i8 leaf node n17 p1 sample" transform="translate(87 223.868)"><path class="edge e16108" d="M 0 0 V -223.868 H -87"/><rect class="sym" height="6" style="fill:blue;" width="6" x="-3" y="-3"/><text class="lab" transform="translate(0 11)">FR048</text></g><g class="a4338 c1 node n3488" transform="translate(29 63.9623)"><g class="a3488 i8 leaf node n16 p1 sample" transform="translate(0.0 159.906)"><path class="edge e12264" d="M 0 0 V -159.906 H 0.0"/><rect class="sym" height="6" style="fill:blue;" width="6" x="-3" y="-3"/><text class="lab" transform="translate(0 11)">FR048</text></g><path class="edge e16110" d="M 0 0 V -63.9623 H -29"/><circle class="sym" cx="0" cy="0" r="3"/><text class="lab rgt" transform="translate(3 -7)"/></g><g class="a4338 c1 node n3982" transform="translate(-87 31.9812)"><g class="a3982 i2 leaf node n4 p0 sample" transform="translate(0.0 191.887)"><path class="edge e14370" d="M 0 0 V -191.887 H 0.0"/><rect class="sym" height="6" style="fill:red;" width="6" x="-3" y="-3"/><text class="lab" transform="translate(0 11)">8M31651</text></g><path class="edge e16112" d="M 0 0 V -31.9812 H 87"/><circle class="sym" cx="0" cy="0" r="3"/><text class="lab lft" transform="translate(-3 -7)"/></g><path class="edge e23809" d="M 0 0 V -223.868 H -43.5"/><circle class="sym" cx="0" cy="0" r="3"/><text class="lab rgt" transform="translate(3 -7)"/></g><g class="a6021 c1 node n4904" transform="translate(-217.5 159.906)"><g class="a4904 c3 node n4339" transform="translate(0.0 63.9623)"><g class="a4339 c2 node n2015" transform="translate(-14.5 127.925)"><g class="a2015 c1 node n1007" transform="translate(-43.5 31.9812)"><g class="a1007 i0 leaf node n1 p0 sample" transform="translate(0.0 63.9623)"><path class="edge e2538" d="M 0 0 V -63.9623 H 0.0"/><rect class="sym" height="6" style="fill:red;" width="6" x="-3" y="-3"/><text class="lab" transform="translate(0 11)">8934547</text></g><path class="edge e6390" d="M 0 0 V -31.9812 H 43.5"/><circle class="sym" cx="0" cy="0" r="3"/><text class="lab lft" transform="translate(-3 -7)"/></g><g class="a2015 c2 m2023 node n1016 s2030" transform="translate(43.5 31.9812)"><g class="a1016 i4 leaf node n8 p0 sample" transform="translate(-29 63.9623)"><path class="edge e2560" d="M 0 0 V -63.9623 H 29"/><rect class="sym" height="6" style="fill:red;" width="6" x="-3" y="-3"/><text class="lab" transform="translate(0 11)">8N73604</text></g><g class="a1016 i6 leaf node n12 p1 sample" transform="translate(29 63.9623)"><path class="edge e2561" d="M 0 0 V -63.9623 H -29"/><rect class="sym" height="6" style="fill:blue;" width="6" x="-3" y="-3"/><text class="lab" transform="translate(0 11)">FR044</text></g><path class="edge e6392" d="M 0 0 V -31.9812 H -43.5"/><g class="mut m2023 s2030 unknown_time" transform="translate(0 -15.9906)"><line x1="0" x2="0" y1="0" y2="15.9906"/><path class="sym" d="M -3,-3 l 6,6 M -3,3 l 6,-6"/><text class="lab rgt" transform="translate(5 0)">2023</text></g><circle class="sym" cx="0" cy="0" r="3"/><text class="lab rgt" transform="translate(3 -7)"/></g><path class="edge e16115" d="M 0 0 V -127.925 H 14.5"/><circle class="sym" cx="0" cy="0" r="3"/><text class="lab rgt" transform="translate(3 -7)"/></g><g class="a4339 c1 node n1017" transform="translate(116 159.906)"><g class="a1017 i1 leaf node n3 p0 sample" transform="translate(0.0 63.9623)"><path class="edge e2562" d="M 0 0 V -63.9623 H 0.0"/><rect class="sym" height="6" style="fill:red;" width="6" x="-3" y="-3"/><text class="lab" transform="translate(0 11)">8L19766</text></g><path class="edge e16113" d="M 0 0 V -159.906 H -116"/><circle class="sym" cx="0" cy="0" r="3"/><text class="lab rgt" transform="translate(3 -7)"/></g><g class="a4339 c1 node n3485" transform="translate(-116 63.9623)"><g class="a3485 c1 node n2017" transform="translate(0.0 63.9623)"><g class="a2017 i0 leaf node n0 p0 sample" transform="translate(0.0 95.9435)"><path class="edge e6400" d="M 0 0 V -95.9435 H 0.0"/><rect class="sym" height="6" style="fill:red;" width="6" x="-3" y="-3"/><text class="lab" transform="translate(0 11)">8934547</text></g><path class="edge e12250" d="M 0 0 V -63.9623 H 0.0"/><circle class="sym" cx="0" cy="0" r="3"/><text class="lab lft" transform="translate(-3 -7)"/></g><path class="edge e16117" d="M 0 0 V -63.9623 H 116"/><circle class="sym" cx="0" cy="0" r="3"/><text class="lab lft" transform="translate(-3 -7)"/></g><path class="edge e18857" d="M 0 0 V -63.9623 H 0.0"/><circle class="sym" cx="0" cy="0" r="3"/><text class="lab lft" transform="translate(-3 -7)"/></g><path class="edge e23813" d="M 0 0 V -159.906 H 217.5"/><circle class="sym" cx="0" cy="0" r="3"/><text class="lab lft" transform="translate(-3 -7)"/></g><g class="a6021 c2 node n4903" transform="translate(217.5 159.906)"><g class="a4903 i9 leaf node n19 p1 sample" transform="translate(29 287.83)"><path class="edge e18844" d="M 0 0 V -287.83 H -29"/><rect class="sym" height="6" style="fill:blue;" width="6" x="-3" y="-3"/><text class="lab" transform="translate(0 11)">FR050</text></g><g class="a4903 c1 node n2018" transform="translate(-29 191.887)"><g class="a2018 i7 leaf node n14 p1 sample" transform="translate(0.0 95.9435)"><path class="edge e6407" d="M 0 0 V -95.9435 H 0.0"/><rect class="sym" height="6" style="fill:blue;" width="6" x="-3" y="-3"/><text class="lab" transform="translate(0 11)">FR046</text></g><path class="edge e18845" d="M 0 0 V -191.887 H 29"/><circle class="sym" cx="0" cy="0" r="3"/><text class="lab lft" transform="translate(-3 -7)"/></g><path class="edge e23812" d="M 0 0 V -159.906 H -217.5"/><circle class="sym" cx="0" cy="0" r="3"/><text class="lab rgt" transform="translate(3 -7)"/></g><path class="edge e24778" d="M 0 0 V -31.9812 H 0.0"/><circle class="sym" cx="0" cy="0" r="3"/><text class="lab lft" transform="translate(-3 -7)"/></g><path class="edge e25656" d="M 0 0 V -31.9812 H 239.25"/><circle class="sym" cx="0" cy="0" r="3"/><text class="lab lft" transform="translate(-3 -7)"/></g><g class="a6573 c1 node n6285" transform="translate(181.25 31.9812)"><g class="a6285 i4 leaf node n9 p0 sample" transform="translate(0.0 479.717)"><path class="edge e24774" d="M 0 0 V -479.717 H 0.0"/><rect class="sym" height="6" style="fill:red;" width="6" x="-3" y="-3"/><text class="lab" transform="translate(0 11)">8N73604</text></g><path class="edge e25655" d="M 0 0 V -31.9812 H -181.25"/><circle class="sym" cx="0" cy="0" r="3"/><text class="lab rgt" transform="translate(3 -7)"/></g><g class="a6573 i2 leaf node n5 p0 sample" transform="translate(123.25 511.699)"><path class="edge e25652" d="M 0 0 V -511.699 H -123.25"/><rect class="sym" height="6" style="fill:red;" width="6" x="-3" y="-3"/><text class="lab" transform="translate(0 11)">8M31651</text></g><g class="a6573 i9 leaf node n18 p1 sample" transform="translate(239.25 511.699)"><path class="edge e25654" d="M 0 0 V -511.699 H -239.25"/><rect class="sym" height="6" style="fill:blue;" width="6" x="-3" y="-3"/><text class="lab" transform="translate(0 11)">FR050</text></g><path class="edge e26584" d="M 0 0 V -63.9623 H 148.625"/><circle class="sym" cx="0" cy="0" r="3"/><text class="lab lft" transform="translate(-3 -7)"/></g><g class="a6830 c1 node n6572" transform="translate(148.625 63.9623)"><g class="a6572 i7 leaf node n15 p1 sample" transform="translate(0.0 511.699)"><path class="edge e25646" d="M 0 0 V -511.699 H 0.0"/><rect class="sym" height="6" style="fill:blue;" width="6" x="-3" y="-3"/><text class="lab" transform="translate(0 11)">FR046</text></g><path class="edge e26583" d="M 0 0 V -63.9623 H -148.625"/><circle class="sym" cx="0" cy="0" r="3"/><text class="lab rgt" transform="translate(3 -7)"/></g><path class="edge e27065" d="M 0 0 V -1.48924e-07 H 132.312"/><circle class="sym" cx="0" cy="0" r="3"/><text class="lab lft" transform="translate(-3 -7)"/></g><path class="edge e29400" d="M 0 0 V -65.7391 H 124.156"/><circle class="sym" cx="0" cy="0" r="3"/><text class="lab lft" transform="translate(-3 -7)"/></g><circle class="sym" cx="0" cy="0" r="3"/><text class="lab" transform="translate(0 -11)"/></g></g></g></svg>