<svg baseProfile="full" height="200" version="1.1" width="200" xmlns="http://www.w3.org/2000/svg" xmlns:ev="http://www.w3.org/2001/xml-events" xmlns:xlink="http://www.w3.org/1999/xlink"><defs><style type="text/css"><![CDATA[.background path {fill: #808080; fill-opacity: 0}.background path:nth-child(odd) {fill-opacity: .1}.axes {font-size: 14px}.x-axis .tick .lab {font-weight: bold; dominant-baseline: hanging}.axes, .tree {font-size: 14px; text-anchor: middle}.axes line, .edge {stroke: black; fill: none}.axes .ax-skip {stroke-dasharray: 4}.y-axis .grid {stroke: #FAFAFA}.node > .sym {fill: black; stroke: none}.site > .sym {stroke: black}.mut text {fill: red; font-style: italic}.mut.extra text {fill: hotpink}.mut line {fill: none; stroke: none}.mut .sym {fill: none; stroke: red}.mut.extra .sym {stroke: hotpink}.node .mut .sym {stroke-width: 1.5px}.tree text, .tree-sequence text {dominant-baseline: central}.plotbox .lab.lft {text-anchor: end}.plotbox .lab.rgt {text-anchor: start}]]></style></defs><g class="tree t0"><g class="axes"><g class="y-axis"><g class="title" transform="translate(0 89.1)"><text class="lab" text-anchor="middle" transform="translate(11) rotate(-90)">Time (generations)</text></g><line class="ax-line" x1="56.8" x2="56.8" y1="168.2" y2="10" /><g class="ticks"><g class="tick" transform="translate(56.8 26.8)"><line x1="0" x2="-5" y1="0" y2="0" /><g transform="translate(-6 0)"><text class="lab" text-anchor="end">1125</text></g></g><g class="tick" transform="translate(56.8 126.094)"><line x1="0" x2="-5" y1="0" y2="0" /><g transform="translate(-6 0)"><text class="lab" text-anchor="end">335</text></g></g><g class="tick" transform="translate(56.8 168.2)"><line x1="0" x2="-5" y1="0" y2="0" /><g transform="translate(-6 0)"><text class="lab" text-anchor="end">0</text></g></g><g class="tick" transform="translate(56.8 155.631)"><line x1="0" x2="-5" y1="0" y2="0" /><g transform="translate(-6 0)"><text class="lab" text-anchor="end">100</text></g></g><g class="tick" transform="translate(56.8 47.79)"><line x1="0" x2="-5" y1="0" y2="0" /><g transform="translate(-6 0)"><text class="lab" text-anchor="end">958</text></g></g><g class="tick" transform="translate(56.8 60.9874)"><line x1="0" x2="-5" y1="0" y2="0" /><g transform="translate(-6 0)"><text class="lab" text-anchor="end">853</text></g></g></g></g></g><g class="plotbox"><g class="c2 node n12 p0 root" transform="translate(118.4 26.8)"><g class="a12 c2 node n7 p0" transform="translate(35.9333 99.2942)"><g class="a7 i1 leaf node n2 p0 sample" transform="translate(15.4 42.1058)"><path class="edge" d="M 0 0 V -42.1058 H -15.4" /><rect class="sym" height="6" width="6" x="-3" y="-3" /><text class="lab" transform="translate(0 11)">2</text></g><g class="a7 c2 node n6 p0" transform="translate(-15.4 29.5369)"><g class="a6 i0 leaf node n1 p0 sample" transform="translate(-10.2667 12.5689)"><path class="edge" d="M 0 0 V -12.5689 H 10.2667" /><rect class="sym" height="6" width="6" x="-3" y="-3" /><text class="lab" transform="translate(0 11)">1</text></g><g class="a6 i1 leaf node n3 p0 sample" transform="translate(10.2667 12.5689)"><path class="edge" d="M 0 0 V -12.5689 H -10.2667" /><rect class="sym" height="6" width="6" x="-3" y="-3" /><text class="lab" transform="translate(0 11)">3</text></g><path class="edge" d="M 0 0 V -29.5369 H 15.4" /><circle class="sym" cx="0" cy="0" r="3" /><text class="lab lft" transform="translate(-3 -7.0)">6</text></g><path class="edge" d="M 0 0 V -99.2942 H -35.9333" /><circle class="sym" cx="0" cy="0" r="3" /><text class="lab rgt" transform="translate(3 -7.0)">7</text></g><g class="a12 c2 node n11 p0" transform="translate(-35.9333 20.99)"><g class="a11 i0 leaf node n0 p0 sample" transform="translate(-15.4 120.41)"><path class="edge" d="M 0 0 V -120.41 H 15.4" /><rect class="sym" height="6" width="6" x="-3" y="-3" /><text class="lab" transform="translate(0 11)">0</text></g><g class="a11 c2 node n10 p0" transform="translate(15.4 13.1973)"><g class="a10 i2 leaf node n4 p0 sample" transform="translate(-10.2667 107.213)"><path class="edge" d="M 0 0 V -107.213 H 10.2667" /><rect class="sym" height="6" width="6" x="-3" y="-3" /><text class="lab" transform="translate(0 11)">4</text></g><g class="a10 i2 leaf node n5 p0 sample" transform="translate(10.2667 107.213)"><path class="edge" d="M 0 0 V -107.213 H -10.2667" /><rect class="sym" height="6" width="6" x="-3" y="-3" /><text class="lab" transform="translate(0 11)">5</text></g><path class="edge" d="M 0 0 V -13.1973 H -15.4" /><circle class="sym" cx="0" cy="0" r="3" /><text class="lab rgt" transform="translate(3 -7.0)">10</text></g><path class="edge" d="M 0 0 V -20.99 H 35.9333" /><circle class="sym" cx="0" cy="0" r="3" /><text class="lab lft" transform="translate(-3 -7.0)">11</text></g><circle class="sym" cx="0" cy="0" r="3" /><text class="lab" transform="translate(0 -11)">12</text></g></g></g></svg>