<svg baseProfile="full" height="250" version="1.1" width="800" xmlns="http://www.w3.org/2000/svg" xmlns:ev="http://www.w3.org/2001/xml-events" xmlns:xlink="http://www.w3.org/1999/xlink"><defs><style type="text/css"><![CDATA[.background path {fill: #808080; fill-opacity: 0}.background path:nth-child(odd) {fill-opacity: .1}.axes {font-size: 14px}.x-axis .tick .lab {font-weight: bold; dominant-baseline: hanging}.axes, .tree {font-size: 14px; text-anchor: middle}.axes line, .edge {stroke: black; fill: none}.axes .ax-skip {stroke-dasharray: 4}.y-axis .grid {stroke: #FAFAFA}.node > .sym {fill: black; stroke: none}.site > .sym {stroke: black}.mut text {fill: red; font-style: italic}.mut.extra text {fill: hotpink}.mut line {fill: none; stroke: none}.mut .sym {fill: none; stroke: red}.mut.extra .sym {stroke: hotpink}.node .mut .sym {stroke-width: 1.5px}.tree text, .tree-sequence text {dominant-baseline: central}.plotbox .lab.lft {text-anchor: end}.plotbox .lab.rgt {text-anchor: start}.node:not(.sample) > .sym, .node:not(.sample) > .lab {visibility: hidden;}.mut {font-size: 12px} .y-axis .tick .lab {font-size: 85%}]]></style></defs><g class="tree-sequence"><g class="background"><path d="M20,0 l190,0 l0,188.2 l-166.44,25 l0,5 l-23.56,0 l0,-5 l0,-25 l0,-188.2z" /><path d="M210,0 l190,0 l0,188.2 l-88.616,25 l0,5 l-267.824,0 l0,-5 l166.44,-25 l0,-188.2z" /><path d="M400,0 l190,0 l0,188.2 l36.252,25 l0,5 l-314.868,0 l0,-5 l88.616,-25 l0,-188.2z" /><path d="M590,0 l190,0 l0,188.2 l0,25 l0,5 l-153.748,0 l0,-5 l-36.252,-25 l0,-188.2z" /></g><g class="axes"><g class="x-axis"><g class="title" transform="translate(400 250)"><text class="lab" text-anchor="middle" transform="translate(0 -11)">Genome position</text></g><line class="ax-line" x1="20" x2="780" y1="213.2" y2="213.2" /><g class="ticks"><g class="tick" transform="translate(20 213.2)"><line x1="0" x2="0" y1="0" y2="5" /><g transform="translate(0 6)"><text class="lab">0</text></g></g><g class="tick" transform="translate(43.56 213.2)"><line x1="0" x2="0" y1="0" y2="5" /><g transform="translate(0 6)"><text class="lab">310</text></g></g><g class="tick" transform="translate(311.384 213.2)"><line x1="0" x2="0" y1="0" y2="5" /><g transform="translate(0 6)"><text class="lab">3834</text></g></g><g class="tick" transform="translate(626.252 213.2)"><line x1="0" x2="0" y1="0" y2="5" /><g transform="translate(0 6)"><text class="lab">7977</text></g></g><g class="tick" transform="translate(780 213.2)"><line x1="0" x2="0" y1="0" y2="5" /><g transform="translate(0 6)"><text class="lab">10000</text></g></g></g><g class="site s0" transform="translate(60.736 213.2)"><line class="sym" x1="0" x2="0" y1="0" y2="-10" /><g class="mut m0"><polyline class="sym" points="2.5,-6.5 0,-1.5 -2.5,-6.5" /></g></g><g class="site s1" transform="translate(205.972 213.2)"><line class="sym" x1="0" x2="0" y1="0" y2="-10" /><g class="mut m1"><polyline class="sym" points="2.5,-6.5 0,-1.5 -2.5,-6.5" /></g></g><g class="site s2" transform="translate(547.972 213.2)"><line class="sym" x1="0" x2="0" y1="0" y2="-10" /><g class="mut m2"><polyline class="sym" points="2.5,-6.5 0,-1.5 -2.5,-6.5" /></g></g><g class="site s3" transform="translate(617.968 213.2)"><line class="sym" x1="0" x2="0" y1="0" y2="-10" /><g class="mut m3"><polyline class="sym" points="2.5,-6.5 0,-1.5 -2.5,-6.5" /></g></g><g class="site s4" transform="translate(648.368 213.2)"><line class="sym" x1="0" x2="0" y1="0" y2="-10" /><g class="mut m4"><polyline class="sym" points="2.5,-6.5 0,-1.5 -2.5,-6.5" /></g></g></g></g><g class="plotbox trees"><g class="tree t0" transform="translate(20 0)"><g class="plotbox"><g class="c2 node n12 p0 root" transform="translate(95 61.4101)"><g class="a12 c2 node n7 p0" transform="translate(43.75 77.2373)"><g class="a7 i1 leaf node n2 p0 sample" transform="translate(18.75 32.7525)"><path class="edge" d="M 0 0 V -32.7525 H -18.75" /><rect class="sym" height="6" width="6" x="-3" y="-3" /><text class="lab" transform="translate(0 11)">f</text></g><g class="a7 c2 node n6 p0" transform="translate(-18.75 22.9757)"><g class="a6 i0 leaf node n1 p0 sample" transform="translate(-12.5 9.77688)"><path class="edge" d="M 0 0 V -9.77688 H 12.5" /><rect class="sym" height="6" width="6" x="-3" y="-3" /><text class="lab" transform="translate(0 11)">d</text></g><g class="a6 i1 leaf node n3 p0 sample" transform="translate(12.5 9.77688)"><path class="edge" d="M 0 0 V -9.77688 H -12.5" /><rect class="sym" height="6" width="6" x="-3" y="-3" /><text class="lab" transform="translate(0 11)">e</text></g><path class="edge" d="M 0 0 V -22.9757 H 18.75" /><circle class="sym" cx="0" cy="0" r="3" /><text class="lab lft" transform="translate(-3 -7.0)">g</text></g><path class="edge" d="M 0 0 V -77.2373 H -43.75" /><circle class="sym" cx="0" cy="0" r="3" /><text class="lab rgt" transform="translate(3 -7.0)">h</text></g><g class="a12 c2 node n11 p0" transform="translate(-43.75 16.3274)"><g class="a11 i0 leaf node n0 p0 sample" transform="translate(-18.75 93.6625)"><path class="edge" d="M 0 0 V -93.6625 H 18.75" /><rect class="sym" height="6" width="6" x="-3" y="-3" /><text class="lab" transform="translate(0 11)">a</text></g><g class="a11 c2 node n10 p0" transform="translate(18.75 10.2657)"><g class="a10 i2 leaf node n4 p0 sample" transform="translate(-12.5 83.3968)"><path class="edge" d="M 0 0 V -83.3968 H 12.5" /><rect class="sym" height="6" width="6" x="-3" y="-3" /><text class="lab" transform="translate(0 11)">b</text></g><g class="a10 i2 leaf node n5 p0 sample" transform="translate(12.5 83.3968)"><path class="edge" d="M 0 0 V -83.3968 H -12.5" /><rect class="sym" height="6" width="6" x="-3" y="-3" /><text class="lab" transform="translate(0 11)">c</text></g><path class="edge" d="M 0 0 V -10.2657 H -18.75" /><circle class="sym" cx="0" cy="0" r="3" /><text class="lab rgt" transform="translate(3 -7.0)">k</text></g><path class="edge" d="M 0 0 V -16.3274 H 43.75" /><circle class="sym" cx="0" cy="0" r="3" /><text class="lab lft" transform="translate(-3 -7.0)">l</text></g><circle class="sym" cx="0" cy="0" r="3" /><text class="lab" transform="translate(0 -11)">m</text></g></g></g><g class="tree t1" transform="translate(210 0)"><g class="plotbox"><g class="c2 node n11 p0 root" transform="translate(83.2812 77.7375)"><g class="a11 i0 leaf m1 node n0 p0 s1 sample" transform="translate(-50.7812 93.6625)"><path class="edge" d="M 0 0 V -93.6625 H 50.7812" /><g class="mut m1 s1" transform="translate(0 -5.58958)"><line x1="0" x2="0" y1="0" y2="5.58958" /><path class="sym" d="M -3,-3 l 6,6 M -3,3 l 6,-6" /><text class="lab lft" transform="translate(-5 0)">2447 (G→C)</text></g><rect class="sym" height="6" width="6" x="-3" y="-3" /><text class="lab" transform="translate(0 11)">a</text></g><g class="a11 c2 node n10 p0" transform="translate(50.7812 10.2657)"><g class="a10 i2 leaf m0 node n4 p0 s0 sample" transform="translate(23.4375 83.3968)"><path class="edge" d="M 0 0 V -83.3968 H -23.4375" /><g class="mut m0 s0" transform="translate(0 -32.7013)"><line x1="0" x2="0" y1="0" y2="32.7013" /><path class="sym" d="M -3,-3 l 6,6 M -3,3 l 6,-6" /><text class="lab rgt" transform="translate(5 0)">536 (A→G)</text></g><rect class="sym" height="6" width="6" x="-3" y="-3" /><text class="lab" transform="translate(0 11)">b</text></g><g class="a10 c2 node n9 p0" transform="translate(-23.4375 25.4199)"><g class="a9 i2 leaf node n5 p0 sample" transform="translate(21.875 57.9769)"><path class="edge" d="M 0 0 V -57.9769 H -21.875" /><rect class="sym" height="6" width="6" x="-3" y="-3" /><text class="lab" transform="translate(0 11)">c</text></g><g class="a9 c2 node n7 p0" transform="translate(-21.875 25.2243)"><g class="a7 i1 leaf node n2 p0 sample" transform="translate(18.75 32.7525)"><path class="edge" d="M 0 0 V -32.7525 H -18.75" /><rect class="sym" height="6" width="6" x="-3" y="-3" /><text class="lab" transform="translate(0 11)">f</text></g><g class="a7 c2 node n6 p0" transform="translate(-18.75 22.9757)"><g class="a6 i0 leaf node n1 p0 sample" transform="translate(-12.5 9.77688)"><path class="edge" d="M 0 0 V -9.77688 H 12.5" /><rect class="sym" height="6" width="6" x="-3" y="-3" /><text class="lab" transform="translate(0 11)">d</text></g><g class="a6 i1 leaf node n3 p0 sample" transform="translate(12.5 9.77688)"><path class="edge" d="M 0 0 V -9.77688 H -12.5" /><rect class="sym" height="6" width="6" x="-3" y="-3" /><text class="lab" transform="translate(0 11)">e</text></g><path class="edge" d="M 0 0 V -22.9757 H 18.75" /><circle class="sym" cx="0" cy="0" r="3" /><text class="lab lft" transform="translate(-3 -7.0)">g</text></g><path class="edge" d="M 0 0 V -25.2243 H 21.875" /><circle class="sym" cx="0" cy="0" r="3" /><text class="lab lft" transform="translate(-3 -7.0)">h</text></g><path class="edge" d="M 0 0 V -25.4199 H 23.4375" /><circle class="sym" cx="0" cy="0" r="3" /><text class="lab lft" transform="translate(-3 -7.0)">j</text></g><path class="edge" d="M 0 0 V -10.2657 H -50.7812" /><circle class="sym" cx="0" cy="0" r="3" /><text class="lab rgt" transform="translate(3 -7.0)">k</text></g><circle class="sym" cx="0" cy="0" r="3" /><text class="lab" transform="translate(0 -11)">l</text></g></g></g><g class="tree t2" transform="translate(400 0)"><g class="plotbox"><g class="c2 node n11 p0 root" transform="translate(74.6875 77.7375)"><g class="a11 i0 leaf m2 node n0 p0 s2 sample" transform="translate(-42.1875 93.6625)"><path class="edge" d="M 0 0 V -93.6625 H 42.1875" /><g class="mut m2 s2" transform="translate(0 -37.2818)"><line x1="0" x2="0" y1="0" y2="37.2818" /><path class="sym" d="M -3,-3 l 6,6 M -3,3 l 6,-6" /><text class="lab lft" transform="translate(-5 0)">6947 (C→G)</text></g><rect class="sym" height="6" width="6" x="-3" y="-3" /><text class="lab" transform="translate(0 11)">a</text></g><g class="a11 c2 node n10 p0" transform="translate(42.1875 10.2657)"><g class="a10 c2 node n9 p0" transform="translate(-28.125 25.4199)"><g class="a9 i2 leaf m3 node n5 p0 s3 sample" transform="translate(18.75 57.9769)"><path class="edge" d="M 0 0 V -57.9769 H -18.75" /><g class="mut m3 s3" transform="translate(0 -56.8616)"><line x1="0" x2="0" y1="0" y2="56.8616" /><path class="sym" d="M -3,-3 l 6,6 M -3,3 l 6,-6" /><text class="lab rgt" transform="translate(5 0)">7868 (C→T)</text></g><rect class="sym" height="6" width="6" x="-3" y="-3" /><text class="lab" transform="translate(0 11)">c</text></g><g class="a9 c2 node n6 p0" transform="translate(-18.75 48.2)"><g class="a6 i0 leaf node n1 p0 sample" transform="translate(-12.5 9.77688)"><path class="edge" d="M 0 0 V -9.77688 H 12.5" /><rect class="sym" height="6" width="6" x="-3" y="-3" /><text class="lab" transform="translate(0 11)">d</text></g><g class="a6 i1 leaf node n3 p0 sample" transform="translate(12.5 9.77688)"><path class="edge" d="M 0 0 V -9.77688 H -12.5" /><rect class="sym" height="6" width="6" x="-3" y="-3" /><text class="lab" transform="translate(0 11)">e</text></g><path class="edge" d="M 0 0 V -48.2 H 18.75" /><circle class="sym" cx="0" cy="0" r="3" /><text class="lab lft" transform="translate(-3 -7.0)">g</text></g><path class="edge" d="M 0 0 V -25.4199 H 28.125" /><circle class="sym" cx="0" cy="0" r="3" /><text class="lab lft" transform="translate(-3 -7.0)">j</text></g><g class="a10 c2 node n8 p0" transform="translate(28.125 42.3339)"><g class="a8 i1 leaf node n2 p0 sample" transform="translate(-12.5 41.0629)"><path class="edge" d="M 0 0 V -41.0629 H 12.5" /><rect class="sym" height="6" width="6" x="-3" y="-3" /><text class="lab" transform="translate(0 11)">f</text></g><g class="a8 i2 leaf node n4 p0 sample" transform="translate(12.5 41.0629)"><path class="edge" d="M 0 0 V -41.0629 H -12.5" /><rect class="sym" height="6" width="6" x="-3" y="-3" /><text class="lab" transform="translate(0 11)">b</text></g><path class="edge" d="M 0 0 V -42.3339 H -28.125" /><circle class="sym" cx="0" cy="0" r="3" /><text class="lab rgt" transform="translate(3 -7.0)">i</text></g><path class="edge" d="M 0 0 V -10.2657 H -42.1875" /><circle class="sym" cx="0" cy="0" r="3" /><text class="lab rgt" transform="translate(3 -7.0)">k</text></g><circle class="sym" cx="0" cy="0" r="3" /><text class="lab" transform="translate(0 -11)">l</text></g></g></g><g class="tree t3" transform="translate(590 0)"><g class="plotbox"><g class="c2 node n13 p0 root" transform="translate(102.812 26.8)"><g class="a13 c2 node n8 p0" transform="translate(42.1875 103.537)"><g class="a8 i1 leaf node n2 p0 sample" transform="translate(-12.5 41.0629)"><path class="edge" d="M 0 0 V -41.0629 H 12.5" /><rect class="sym" height="6" width="6" x="-3" y="-3" /><text class="lab" transform="translate(0 11)">f</text></g><g class="a8 i2 leaf m4 node n4 p0 s4 sample" transform="translate(12.5 41.0629)"><path class="edge" d="M 0 0 V -41.0629 H -12.5" /><g class="mut m4 s4" transform="translate(0 -29.5435)"><line x1="0" x2="0" y1="0" y2="29.5435" /><path class="sym" d="M -3,-3 l 6,6 M -3,3 l 6,-6" /><text class="lab rgt" transform="translate(5 0)">8268 (C→T)</text></g><rect class="sym" height="6" width="6" x="-3" y="-3" /><text class="lab" transform="translate(0 11)">b</text></g><path class="edge" d="M 0 0 V -103.537 H -42.1875" /><circle class="sym" cx="0" cy="0" r="3" /><text class="lab rgt" transform="translate(3 -7.0)">i</text></g><g class="a13 c2 node n11 p0" transform="translate(-42.1875 50.9375)"><g class="a11 i0 leaf node n0 p0 sample" transform="translate(-28.125 93.6625)"><path class="edge" d="M 0 0 V -93.6625 H 28.125" /><rect class="sym" height="6" width="6" x="-3" y="-3" /><text class="lab" transform="translate(0 11)">a</text></g><g class="a11 c2 node n9 p0" transform="translate(28.125 35.6856)"><g class="a9 i2 leaf node n5 p0 sample" transform="translate(18.75 57.9769)"><path class="edge" d="M 0 0 V -57.9769 H -18.75" /><rect class="sym" height="6" width="6" x="-3" y="-3" /><text class="lab" transform="translate(0 11)">c</text></g><g class="a9 c2 node n6 p0" transform="translate(-18.75 48.2)"><g class="a6 i0 leaf node n1 p0 sample" transform="translate(-12.5 9.77688)"><path class="edge" d="M 0 0 V -9.77688 H 12.5" /><rect class="sym" height="6" width="6" x="-3" y="-3" /><text class="lab" transform="translate(0 11)">d</text></g><g class="a6 i1 leaf node n3 p0 sample" transform="translate(12.5 9.77688)"><path class="edge" d="M 0 0 V -9.77688 H -12.5" /><rect class="sym" height="6" width="6" x="-3" y="-3" /><text class="lab" transform="translate(0 11)">e</text></g><path class="edge" d="M 0 0 V -48.2 H 18.75" /><circle class="sym" cx="0" cy="0" r="3" /><text class="lab lft" transform="translate(-3 -7.0)">g</text></g><path class="edge" d="M 0 0 V -35.6856 H -28.125" /><circle class="sym" cx="0" cy="0" r="3" /><text class="lab rgt" transform="translate(3 -7.0)">j</text></g><path class="edge" d="M 0 0 V -50.9375 H 42.1875" /><circle class="sym" cx="0" cy="0" r="3" /><text class="lab lft" transform="translate(-3 -7.0)">l</text></g><circle class="sym" cx="0" cy="0" r="3" /><text class="lab" transform="translate(0 -11)">n</text></g></g></g></g></g></svg>