<svg baseProfile="full" height="300" version="1.1" width="800" xmlns="http://www.w3.org/2000/svg" xmlns:ev="http://www.w3.org/2001/xml-events" xmlns:xlink="http://www.w3.org/1999/xlink"><defs><style type="text/css"><![CDATA[.background path {fill: #808080; fill-opacity: 0}.background path:nth-child(odd) {fill-opacity: .1}.x-regions rect {fill: yellow; stroke: black; opacity: 0.5}.axes {font-size: 14px}.x-axis .tick .lab {font-weight: bold; dominant-baseline: hanging}.axes, .tree {font-size: 14px; text-anchor: middle}.axes line, .edge {stroke: black; fill: none}.axes .ax-skip {stroke-dasharray: 4}.y-axis .grid {stroke: #FAFAFA}.node > .sym {fill: black; stroke: none}.site > .sym {stroke: black}.mut text {fill: red; font-style: italic}.mut.extra text {fill: hotpink}.mut line {fill: none; stroke: none}.mut .sym {fill: none; stroke: red}.mut.extra .sym {stroke: hotpink}.node .mut .sym {stroke-width: 1.5px}.tree text, .tree-sequence text {dominant-baseline: central}.plotbox .lab.lft {text-anchor: end}.plotbox .lab.rgt {text-anchor: start}.polytomy line {stroke: black; stroke-dasharray: 1px, 1px}.polytomy text {paint-order:stroke;stroke-width:0.3em;stroke:white}]]></style></defs><g class="tree-sequence"><g class="background"><path d="M56.8,0 l180.8,0 l0,238.2 l-158.381,25 l0,5 l-22.4192,0 l0,-5 l0,-25 l0,-238.2z"/><path d="M237.6,0 l180.8,0 l0,238.2 l-84.3251,25 l0,5 l-254.856,0 l0,-5 l158.381,-25 l0,-238.2z"/><path d="M418.4,0 l180.8,0 l0,238.2 l34.4966,25 l0,5 l-299.622,0 l0,-5 l84.325,-25 l0,-238.2z"/><path d="M599.2,0 l180.8,0 l0,238.2 l0,25 l0,5 l-146.303,0 l0,-5 l-34.497,-25 l0,-238.2z"/></g><g class="axes"><g class="x-axis"><g class="title" transform="translate(418.4 300)"><text class="lab" text-anchor="middle" transform="translate(0 -11)">Genome position</text></g><line class="ax-line" x1="56.8" x2="780" y1="263.2" y2="263.2"/><g class="ticks"><g class="tick" transform="translate(56.8 263.2)"><line x1="0" x2="0" y1="0" y2="5"/><g transform="translate(0 6)"><text class="lab">0</text></g></g><g class="tick" transform="translate(79.2192 263.2)"><line x1="0" x2="0" y1="0" y2="5"/><g transform="translate(0 6)"><text class="lab">310</text></g></g><g class="tick" transform="translate(334.075 263.2)"><line x1="0" x2="0" y1="0" y2="5"/><g transform="translate(0 6)"><text class="lab">3834</text></g></g><g class="tick" transform="translate(633.697 263.2)"><line x1="0" x2="0" y1="0" y2="5"/><g transform="translate(0 6)"><text class="lab">7977</text></g></g><g class="tick" transform="translate(780 263.2)"><line x1="0" x2="0" y1="0" y2="5"/><g transform="translate(0 6)"><text class="lab">10000</text></g></g></g><g class="site s0" transform="translate(95.5635 263.2)"><line class="sym" x1="0" x2="0" y1="0" y2="-10"/><g class="mut m0"><polyline class="sym" points="2.5,-6.5 0,-1.5 -2.5,-6.5"/></g></g><g class="site s1" transform="translate(233.767 263.2)"><line class="sym" x1="0" x2="0" y1="0" y2="-10"/><g class="mut m1"><polyline class="sym" points="2.5,-6.5 0,-1.5 -2.5,-6.5"/></g></g><g class="site s2" transform="translate(559.207 263.2)"><line class="sym" x1="0" x2="0" y1="0" y2="-10"/><g class="mut m2"><polyline class="sym" points="2.5,-6.5 0,-1.5 -2.5,-6.5"/></g></g><g class="site s3" transform="translate(625.814 263.2)"><line class="sym" x1="0" x2="0" y1="0" y2="-10"/><g class="mut m3"><polyline class="sym" points="2.5,-6.5 0,-1.5 -2.5,-6.5"/></g></g><g class="site s4" transform="translate(654.742 263.2)"><line class="sym" x1="0" x2="0" y1="0" y2="-10"/><g class="mut m4"><polyline class="sym" points="2.5,-6.5 0,-1.5 -2.5,-6.5"/></g></g></g><g class="y-axis"><g class="title" transform="translate(0 115.7)"><text class="lab" text-anchor="middle" transform="translate(11) rotate(-90)">Time ago (generations)</text></g><line class="ax-line" x1="56.8" x2="56.8" y1="221.4" y2="10"/><g class="ticks"><g class="tick" transform="translate(56.8 221.4)"><line x1="0" x2="-5" y1="0" y2="0"/><g transform="translate(-6 0)"><text class="lab" text-anchor="end">0</text></g></g><g class="tick" transform="translate(56.8 208.242)"><line x1="0" x2="-5" y1="0" y2="0"/><g transform="translate(-6 0)"><text class="lab" text-anchor="end">100</text></g></g><g class="tick" transform="translate(56.8 177.322)"><line x1="0" x2="-5" y1="0" y2="0"/><g transform="translate(-6 0)"><text class="lab" text-anchor="end">335</text></g></g><g class="tick" transform="translate(56.8 166.138)"><line x1="0" x2="-5" y1="0" y2="0"/><g transform="translate(-6 0)"><text class="lab" text-anchor="end">420</text></g></g><g class="tick" transform="translate(56.8 143.376)"><line x1="0" x2="-5" y1="0" y2="0"/><g transform="translate(-6 0)"><text class="lab" text-anchor="end">593</text></g></g><g class="tick" transform="translate(56.8 109.166)"><line x1="0" x2="-5" y1="0" y2="0"/><g transform="translate(-6 0)"><text class="lab" text-anchor="end">853</text></g></g><g class="tick" transform="translate(56.8 95.3508)"><line x1="0" x2="-5" y1="0" y2="0"/><g transform="translate(-6 0)"><text class="lab" text-anchor="end">958</text></g></g><g class="tick" transform="translate(56.8 73.3777)"><line x1="0" x2="-5" y1="0" y2="0"/><g transform="translate(-6 0)"><text class="lab" text-anchor="end">1125</text></g></g><g class="tick" transform="translate(56.8 26.8)"><line x1="0" x2="-5" y1="0" y2="0"/><g transform="translate(-6 0)"><text class="lab" text-anchor="end">1479</text></g></g></g></g></g><g class="plotbox trees"><g class="tree t0" transform="translate(56.8 0)"><g class="plotbox"><g class="c2 node n12 p0 root" transform="translate(90.4 73.3777)"><g class="a12 c2 node n7 p0" transform="translate(41.0667 103.945)"><g class="a7 i1 leaf node n2 p0 sample" transform="translate(17.6 44.0778)"><path class="edge e2" d="M 0 0 V -44.0778 H -17.6"/><rect class="sym" height="6" width="6" x="-3" y="-3"/><text class="lab" transform="translate(0 11)">2</text></g><g class="a7 c2 node n6 p0" transform="translate(-17.6 30.9202)"><g class="a6 i0 leaf node n1 p0 sample" transform="translate(-11.7333 13.1575)"><path class="edge e0" d="M 0 0 V -13.1575 H 11.7333"/><rect class="sym" height="6" width="6" x="-3" y="-3"/><text class="lab" transform="translate(0 11)">1</text></g><g class="a6 i1 leaf node n3 p0 sample" transform="translate(11.7333 13.1575)"><path class="edge e1" d="M 0 0 V -13.1575 H -11.7333"/><rect class="sym" height="6" width="6" x="-3" y="-3"/><text class="lab" transform="translate(0 11)">3</text></g><path class="edge e3" d="M 0 0 V -30.9202 H 17.6"/><circle class="sym" cx="0" cy="0" r="3"/><text class="lab lft" transform="translate(-3 -7)">6</text></g><path class="edge e16" d="M 0 0 V -103.945 H -41.0667"/><circle class="sym" cx="0" cy="0" r="3"/><text class="lab rgt" transform="translate(3 -7)">7</text></g><g class="a12 c2 node n11 p0" transform="translate(-41.0667 21.9731)"><g class="a11 i0 leaf node n0 p0 sample" transform="translate(-17.6 126.049)"><path class="edge e13" d="M 0 0 V -126.049 H 17.6"/><rect class="sym" height="6" width="6" x="-3" y="-3"/><text class="lab" transform="translate(0 11)">0</text></g><g class="a11 c2 node n10 p0" transform="translate(17.6 13.8154)"><g class="a10 i2 leaf node n4 p0 sample" transform="translate(-11.7333 112.234)"><path class="edge e9" d="M 0 0 V -112.234 H 11.7333"/><rect class="sym" height="6" width="6" x="-3" y="-3"/><text class="lab" transform="translate(0 11)">4</text></g><g class="a10 i2 leaf node n5 p0 sample" transform="translate(11.7333 112.234)"><path class="edge e10" d="M 0 0 V -112.234 H -11.7333"/><rect class="sym" height="6" width="6" x="-3" y="-3"/><text class="lab" transform="translate(0 11)">5</text></g><path class="edge e15" d="M 0 0 V -13.8154 H -17.6"/><circle class="sym" cx="0" cy="0" r="3"/><text class="lab rgt" transform="translate(3 -7)">10</text></g><path class="edge e17" d="M 0 0 V -21.9731 H 41.0667"/><circle class="sym" cx="0" cy="0" r="3"/><text class="lab lft" transform="translate(-3 -7)">11</text></g><circle class="sym" cx="0" cy="0" r="3"/><text class="lab" transform="translate(0 -11)">12</text></g></g></g><g class="tree t1" transform="translate(237.6 0)"><g class="plotbox"><g class="c2 node n11 p0 root" transform="translate(79.4 95.3508)"><g class="a11 i0 leaf m1 node n0 p0 s1 sample" transform="translate(-47.6667 126.049)"><path class="edge e13" d="M 0 0 V -126.049 H 47.6667"/><g class="mut m1 s1" transform="translate(0 -7.52235)"><line x1="0" x2="0" y1="0" y2="7.52235"/><path class="sym" d="M -3,-3 l 6,6 M -3,3 l 6,-6"/><text class="lab lft" transform="translate(-5 0)">C</text></g><rect class="sym" height="6" width="6" x="-3" y="-3"/><text class="lab" transform="translate(0 11)">0</text></g><g class="a11 c2 node n10 p0" transform="translate(47.6667 13.8154)"><g class="a10 i2 leaf m0 node n4 p0 s0 sample" transform="translate(22 112.234)"><path class="edge e9" d="M 0 0 V -112.234 H -22"/><g class="mut m0 s0" transform="translate(0 -44.0088)"><line x1="0" x2="0" y1="0" y2="44.0088"/><path class="sym" d="M -3,-3 l 6,6 M -3,3 l 6,-6"/><text class="lab rgt" transform="translate(5 0)">G</text></g><rect class="sym" height="6" width="6" x="-3" y="-3"/><text class="lab" transform="translate(0 11)">4</text></g><g class="a10 c2 node n9 p0" transform="translate(-22 34.2096)"><g class="a9 i2 leaf node n5 p0 sample" transform="translate(20.5333 78.0242)"><path class="edge e6" d="M 0 0 V -78.0242 H -20.5333"/><rect class="sym" height="6" width="6" x="-3" y="-3"/><text class="lab" transform="translate(0 11)">5</text></g><g class="a9 c2 node n7 p0" transform="translate(-20.5333 33.9465)"><g class="a7 i1 leaf node n2 p0 sample" transform="translate(17.6 44.0778)"><path class="edge e2" d="M 0 0 V -44.0778 H -17.6"/><rect class="sym" height="6" width="6" x="-3" y="-3"/><text class="lab" transform="translate(0 11)">2</text></g><g class="a7 c2 node n6 p0" transform="translate(-17.6 30.9202)"><g class="a6 i0 leaf node n1 p0 sample" transform="translate(-11.7333 13.1575)"><path class="edge e0" d="M 0 0 V -13.1575 H 11.7333"/><rect class="sym" height="6" width="6" x="-3" y="-3"/><text class="lab" transform="translate(0 11)">1</text></g><g class="a6 i1 leaf node n3 p0 sample" transform="translate(11.7333 13.1575)"><path class="edge e1" d="M 0 0 V -13.1575 H -11.7333"/><rect class="sym" height="6" width="6" x="-3" y="-3"/><text class="lab" transform="translate(0 11)">3</text></g><path class="edge e3" d="M 0 0 V -30.9202 H 17.6"/><circle class="sym" cx="0" cy="0" r="3"/><text class="lab lft" transform="translate(-3 -7)">6</text></g><path class="edge e8" d="M 0 0 V -33.9465 H 20.5333"/><circle class="sym" cx="0" cy="0" r="3"/><text class="lab lft" transform="translate(-3 -7)">7</text></g><path class="edge e12" d="M 0 0 V -34.2096 H 22"/><circle class="sym" cx="0" cy="0" r="3"/><text class="lab lft" transform="translate(-3 -7)">9</text></g><path class="edge e15" d="M 0 0 V -13.8154 H -47.6667"/><circle class="sym" cx="0" cy="0" r="3"/><text class="lab rgt" transform="translate(3 -7)">10</text></g><circle class="sym" cx="0" cy="0" r="3"/><text class="lab" transform="translate(0 -11)">11</text></g></g></g><g class="tree t2" transform="translate(418.4 0)"><g class="plotbox"><g class="c2 node n11 p0 root" transform="translate(71.3333 95.3508)"><g class="a11 i0 leaf m2 node n0 p0 s2 sample" transform="translate(-39.6 126.049)"><path class="edge e13" d="M 0 0 V -126.049 H 39.6"/><g class="mut m2 s2" transform="translate(0 -50.1732)"><line x1="0" x2="0" y1="0" y2="50.1732"/><path class="sym" d="M -3,-3 l 6,6 M -3,3 l 6,-6"/><text class="lab lft" transform="translate(-5 0)">G</text></g><rect class="sym" height="6" width="6" x="-3" y="-3"/><text class="lab" transform="translate(0 11)">0</text></g><g class="a11 c2 node n10 p0" transform="translate(39.6 13.8154)"><g class="a10 c2 node n9 p0" transform="translate(-26.4 34.2096)"><g class="a9 i2 leaf m3 node n5 p0 s3 sample" transform="translate(17.6 78.0242)"><path class="edge e6" d="M 0 0 V -78.0242 H -17.6"/><g class="mut m3 s3" transform="translate(0 -76.5233)"><line x1="0" x2="0" y1="0" y2="76.5233"/><path class="sym" d="M -3,-3 l 6,6 M -3,3 l 6,-6"/><text class="lab rgt" transform="translate(5 0)">T</text></g><rect class="sym" height="6" width="6" x="-3" y="-3"/><text class="lab" transform="translate(0 11)">5</text></g><g class="a9 c2 node n6 p0" transform="translate(-17.6 64.8667)"><g class="a6 i0 leaf node n1 p0 sample" transform="translate(-11.7333 13.1575)"><path class="edge e0" d="M 0 0 V -13.1575 H 11.7333"/><rect class="sym" height="6" width="6" x="-3" y="-3"/><text class="lab" transform="translate(0 11)">1</text></g><g class="a6 i1 leaf node n3 p0 sample" transform="translate(11.7333 13.1575)"><path class="edge e1" d="M 0 0 V -13.1575 H -11.7333"/><rect class="sym" height="6" width="6" x="-3" y="-3"/><text class="lab" transform="translate(0 11)">3</text></g><path class="edge e7" d="M 0 0 V -64.8667 H 17.6"/><circle class="sym" cx="0" cy="0" r="3"/><text class="lab lft" transform="translate(-3 -7)">6</text></g><path class="edge e12" d="M 0 0 V -34.2096 H 26.4"/><circle class="sym" cx="0" cy="0" r="3"/><text class="lab lft" transform="translate(-3 -7)">9</text></g><g class="a10 c2 node n8 p0" transform="translate(26.4 56.9721)"><g class="a8 i1 leaf node n2 p0 sample" transform="translate(-11.7333 55.2617)"><path class="edge e4" d="M 0 0 V -55.2617 H 11.7333"/><rect class="sym" height="6" width="6" x="-3" y="-3"/><text class="lab" transform="translate(0 11)">2</text></g><g class="a8 i2 leaf node n4 p0 sample" transform="translate(11.7333 55.2617)"><path class="edge e5" d="M 0 0 V -55.2617 H -11.7333"/><rect class="sym" height="6" width="6" x="-3" y="-3"/><text class="lab" transform="translate(0 11)">4</text></g><path class="edge e11" d="M 0 0 V -56.9721 H -26.4"/><circle class="sym" cx="0" cy="0" r="3"/><text class="lab rgt" transform="translate(3 -7)">8</text></g><path class="edge e15" d="M 0 0 V -13.8154 H -39.6"/><circle class="sym" cx="0" cy="0" r="3"/><text class="lab rgt" transform="translate(3 -7)">10</text></g><circle class="sym" cx="0" cy="0" r="3"/><text class="lab" transform="translate(0 -11)">11</text></g></g></g><g class="tree t3" transform="translate(599.2 0)"><g class="plotbox"><g class="c2 node n13 p0 root" transform="translate(97.7333 26.8)"><g class="a13 c2 node n8 p0" transform="translate(39.6 139.338)"><g class="a8 i1 leaf node n2 p0 sample" transform="translate(-11.7333 55.2617)"><path class="edge e4" d="M 0 0 V -55.2617 H 11.7333"/><rect class="sym" height="6" width="6" x="-3" y="-3"/><text class="lab" transform="translate(0 11)">2</text></g><g class="a8 i2 leaf m4 node n4 p0 s4 sample" transform="translate(11.7333 55.2617)"><path class="edge e5" d="M 0 0 V -55.2617 H -11.7333"/><g class="mut m4 s4" transform="translate(0 -39.7591)"><line x1="0" x2="0" y1="0" y2="39.7591"/><path class="sym" d="M -3,-3 l 6,6 M -3,3 l 6,-6"/><text class="lab rgt" transform="translate(5 0)">T</text></g><rect class="sym" height="6" width="6" x="-3" y="-3"/><text class="lab" transform="translate(0 11)">4</text></g><path class="edge e18" d="M 0 0 V -139.338 H -39.6"/><circle class="sym" cx="0" cy="0" r="3"/><text class="lab rgt" transform="translate(3 -7)">8</text></g><g class="a13 c2 node n11 p0" transform="translate(-39.6 68.5508)"><g class="a11 i0 leaf node n0 p0 sample" transform="translate(-26.4 126.049)"><path class="edge e13" d="M 0 0 V -126.049 H 26.4"/><rect class="sym" height="6" width="6" x="-3" y="-3"/><text class="lab" transform="translate(0 11)">0</text></g><g class="a11 c2 node n9 p0" transform="translate(26.4 48.025)"><g class="a9 i2 leaf node n5 p0 sample" transform="translate(17.6 78.0242)"><path class="edge e6" d="M 0 0 V -78.0242 H -17.6"/><rect class="sym" height="6" width="6" x="-3" y="-3"/><text class="lab" transform="translate(0 11)">5</text></g><g class="a9 c2 node n6 p0" transform="translate(-17.6 64.8667)"><g class="a6 i0 leaf node n1 p0 sample" transform="translate(-11.7333 13.1575)"><path class="edge e0" d="M 0 0 V -13.1575 H 11.7333"/><rect class="sym" height="6" width="6" x="-3" y="-3"/><text class="lab" transform="translate(0 11)">1</text></g><g class="a6 i1 leaf node n3 p0 sample" transform="translate(11.7333 13.1575)"><path class="edge e1" d="M 0 0 V -13.1575 H -11.7333"/><rect class="sym" height="6" width="6" x="-3" y="-3"/><text class="lab" transform="translate(0 11)">3</text></g><path class="edge e7" d="M 0 0 V -64.8667 H 17.6"/><circle class="sym" cx="0" cy="0" r="3"/><text class="lab lft" transform="translate(-3 -7)">6</text></g><path class="edge e14" d="M 0 0 V -48.025 H -26.4"/><circle class="sym" cx="0" cy="0" r="3"/><text class="lab rgt" transform="translate(3 -7)">9</text></g><path class="edge e19" d="M 0 0 V -68.5508 H 39.6"/><circle class="sym" cx="0" cy="0" r="3"/><text class="lab lft" transform="translate(-3 -7)">11</text></g><circle class="sym" cx="0" cy="0" r="3"/><text class="lab" transform="translate(0 -11)">13</text></g></g></g></g></g></svg>